<?xml version="1.0" standalone="no"?>
<!DOCTYPE svg PUBLIC "-//W3C//DTD SVG 20010904//EN"
 "http://www.w3.org/TR/2001/REC-SVG-20010904/DTD/svg10.dtd">
<svg version="1.0" xmlns="http://www.w3.org/2000/svg"
 width="1122.000000pt" height="1122.000000pt" viewBox="0 0 1122.000000 1122.000000"
 preserveAspectRatio="xMidYMid meet">
<metadata>
Created by potrace 1.14, written by Peter Selinger 2001-2017
</metadata>
<g transform="translate(0.000000,1122.000000) scale(0.100000,-0.100000)"
fill="#000000" stroke="none">
<path d="M1768 7558 l-3 -2563 -65 88 c-53 71 -143 208 -188 286 -6 11 -23 -4
-66 -60 -67 -85 -269 -388 -312 -468 l-29 -53 -150 6 c-185 8 -536 42 -639 63
l-29 5 33 -58 c137 -246 356 -528 593 -765 l109 -110 -37 -57 c-92 -139 -221
-285 -307 -347 l-28 -20 146 -120 c473 -388 999 -709 1610 -980 12 -6 59 -50
103 -100 507 -560 1316 -976 2201 -1130 337 -59 473 -69 900 -69 346 0 417 3
575 22 595 73 1082 214 1545 448 378 190 736 456 980 728 l80 88 172 79 c515
236 1055 575 1480 928 l128 106 -28 19 c-61 42 -211 207 -276 303 l-69 102
110 109 c177 178 338 371 461 553 69 104 164 261 159 265 -2 2 -68 -5 -148
-16 -171 -23 -504 -50 -598 -49 l-66 0 -78 132 c-77 130 -221 339 -288 420
l-35 41 -36 -65 c-38 -67 -158 -242 -202 -294 l-25 -30 -1 2563 0 2562 -3840
0 -3840 0 -2 -2562z m7612 -482 l0 -2973 -58 -45 -57 -45 3 2963 2 2964 -3660
0 -3660 0 2 -2963 3 -2963 -57 45 -58 44 0 2974 0 2973 3770 0 3770 0 0 -2974z
m-5050 1814 l0 -331 -22 12 c-48 25 -1153 642 -1157 645 -2 2 262 4 587 4
l592 0 0 -330z m1197 -327 c-2 -2 -264 -2 -583 -1 l-578 3 579 322 580 322 3
-321 c1 -177 1 -323 -1 -325z m-1222 -22 c-13 -11 -1161 -641 -1169 -641 -3 0
-6 146 -6 325 l0 325 592 0 c327 0 588 -4 583 -9z m630 -321 c292 -161 544
-301 560 -311 29 -18 19 -19 -562 -19 l-593 0 0 331 0 331 33 -20 c17 -11 271
-151 562 -312z m-565 -915 l0 -345 -225 0 -225 0 0 110 0 110 -275 0 -275 0 0
-310 0 -310 290 0 290 0 0 -72 c0 -68 -3 -78 -40 -138 l-40 -65 0 103 0 102
-285 0 -285 0 0 380 0 380 345 0 345 0 0 -105 0 -105 155 0 155 0 0 265 0 265
-795 0 -795 0 0 -150 0 -150 120 0 120 0 0 -970 0 -970 -120 0 -120 0 0 -155
0 -155 180 0 c99 0 180 -3 180 -6 0 -3 -9 -19 -21 -35 l-20 -29 -195 0 -194 0
0 225 0 225 115 0 115 0 0 895 0 895 -115 0 -115 0 0 230 0 230 865 0 865 0 0
-345z m3440 115 l0 -230 -115 0 -115 0 0 -402 -1 -403 -34 55 -35 54 0 388 0
388 115 0 115 0 0 150 0 150 -410 0 -410 0 0 -150 0 -150 120 0 120 0 0 -308
0 -308 -40 -39 -40 -39 0 307 0 307 -115 0 -115 0 0 230 0 230 480 0 480 0 0
-230z m-2097 -425 c-5 -68 -4 -75 12 -75 15 0 17 6 12 43 l-6 43 44 0 c30 0
45 -5 45 -13 0 -7 -4 -13 -10 -13 -13 0 -13 -57 1 -62 7 -2 7 -12 -1 -32 -9
-26 -7 -69 7 -118 4 -16 -4 -18 -61 -18 -37 0 -66 4 -66 10 0 6 11 10 25 10
14 0 25 6 25 13 0 8 -11 24 -25 37 -23 22 -25 30 -25 122 0 65 4 104 13 113 6
8 13 14 14 15 2 0 0 -34 -4 -75z m809 -12 c-5 -60 -4 -63 18 -63 21 0 22 3 17
48 l-5 47 33 0 34 0 -6 -42 c-3 -25 -1 -48 5 -56 7 -8 7 -18 2 -27 -9 -14 -7
-45 6 -107 4 -23 4 -23 -129 -23 l-133 0 2 78 c1 42 5 85 9 95 4 9 4 32 1 50
-6 31 -5 32 29 32 33 0 49 -19 24 -27 -17 -6 -1 -68 17 -68 14 0 20 38 16 100
-1 22 3 25 32 25 l33 0 -5 -62z m-232 -796 c0 -475 -1 -519 -19 -589 -11 -42
-32 -100 -48 -130 -15 -29 -29 -56 -31 -60 -2 -5 105 -8 237 -8 l241 0 0 -225
0 -225 -114 0 -114 0 -5 -512 c-5 -559 -9 -598 -66 -766 -40 -115 -84 -185
-171 -272 -89 -90 -195 -147 -335 -182 -129 -32 -379 -32 -510 1 -146 36 -244
89 -340 184 -97 97 -152 196 -189 338 -39 149 -46 258 -46 749 l0 460 -115 0
-115 0 0 225 0 225 480 0 480 0 0 -225 0 -225 -116 0 -115 0 3 -522 c4 -509 4
-525 26 -589 17 -50 33 -76 65 -106 60 -55 102 -68 227 -68 184 0 267 48 311
180 23 69 23 77 27 588 l3 517 -115 0 -116 0 0 95 c0 57 -4 95 -10 95 -5 0
-10 25 -10 55 0 30 5 55 10 55 6 0 10 32 10 75 l0 75 60 0 61 0 -3 103 -3 102
-67 3 -68 3 0 69 c0 68 1 70 25 70 34 0 93 54 105 98 5 20 10 83 10 140 l0
102 -70 0 -70 0 0 74 0 74 33 6 c41 8 84 51 97 97 6 18 10 82 10 141 l0 108
-70 0 -70 0 0 55 0 55 300 0 300 0 0 -513z m-1956 377 c25 -24 20 -63 -9 -76
-19 -8 -28 -8 -40 2 -21 17 -19 67 3 79 23 14 28 14 46 -5z m2887 6 c23 -13
26 -62 4 -80 -12 -10 -21 -10 -40 -2 -30 14 -35 65 -7 81 21 13 20 13 43 1z
m-1450 -73 c-5 -5 -17 -7 -26 -3 -14 5 -15 9 -5 21 10 12 16 13 27 4 9 -8 10
-16 4 -22z m-66 -56 c3 -5 1 -12 -5 -16 -5 -3 -10 1 -10 9 0 18 6 21 15 7z
m64 -87 c-9 -11 -15 -12 -25 -3 -11 9 -12 15 -3 25 9 11 15 12 25 3 11 -9 12
-15 3 -25z m1391 -539 l0 -485 -120 0 -120 0 0 -155 0 -155 610 0 610 0 0 -35
0 -35 -645 0 -645 0 0 225 0 225 115 0 115 0 0 435 0 434 28 15 c55 30 52 53
52 -469z m-673 414 c5 11 7 11 14 0 8 -12 10 -12 18 0 5 8 6 -16 3 -58 -5 -69
-4 -71 18 -71 21 0 22 3 17 48 l-5 47 34 0 c20 0 34 -5 34 -12 0 -7 -4 -13 -8
-13 -4 0 -6 -16 -4 -35 2 -19 8 -35 13 -35 6 0 5 -8 -1 -19 -5 -11 -8 -33 -5
-50 3 -17 7 -44 10 -61 l5 -30 -133 0 -133 0 4 88 c3 48 5 105 5 127 0 39 1
40 33 40 32 0 48 -19 23 -27 -17 -6 -1 -68 17 -68 14 0 20 38 16 110 -1 27 1
32 9 20 9 -12 12 -13 16 -1z m-2699 -66 c-2 -5 -10 -20 -17 -35 l-14 -28 -194
0 -193 0 0 -305 0 -305 -31 -50 c-17 -27 -33 -50 -35 -50 -2 0 -4 176 -4 390
l0 390 246 0 c135 0 244 -3 242 -7z m1985 -140 c4 -3 2 -12 -4 -20 -9 -10 -15
-10 -25 -2 -8 6 -11 15 -8 20 6 11 28 12 37 2z m-70 -88 c-7 -21 -13 -19 -13
6 0 11 4 18 10 14 5 -3 7 -12 3 -20z m71 -54 c3 -5 -1 -15 -10 -22 -13 -10
-17 -10 -24 1 -5 8 -6 18 -4 22 7 11 31 10 38 -1z m-1404 -586 l0 -345 -500 0
-500 0 0 35 0 35 465 0 465 0 0 270 0 270 -107 0 -107 0 39 40 39 40 103 0
103 0 0 -345z m4210 0 l0 -345 -53 0 c-56 0 -54 -2 -85 63 -2 4 12 7 32 7 l36
0 0 270 0 270 -155 0 -155 0 0 -82 -1 -83 -34 55 c-31 48 -35 62 -35 122 l0
68 225 0 225 0 0 -345z m-2807 239 c9 -10 -4 -34 -18 -34 -17 0 -28 17 -20 30
7 11 28 13 38 4z m1846 -138 l63 -46 -86 0 -86 0 0 67 0 66 23 -20 c12 -11 51
-41 86 -67z m-3629 14 l0 -60 -81 0 -81 0 79 59 c43 33 79 60 81 60 1 1 2 -26
2 -59z m1712 28 c-9 -9 -12 -7 -12 12 0 19 3 21 12 12 9 -9 9 -15 0 -24z
m-4003 -472 l71 -90 0 -298 c0 -164 -4 -298 -8 -298 -5 0 -64 25 -133 56 -204
92 -189 87 -207 72 -112 -86 -207 -191 -306 -336 -27 -39 -52 -72 -55 -72 -10
0 -243 239 -315 323 -79 92 -215 274 -279 375 -26 39 -46 72 -44 72 1 0 88 -9
192 -20 105 -11 267 -23 362 -26 l171 -7 22 44 c37 72 147 245 238 375 l85
120 68 -100 c37 -56 99 -141 138 -190z m8225 4 c40 -63 91 -146 112 -184 l39
-69 160 7 c148 5 422 28 523 42 l43 6 -47 -73 c-127 -197 -269 -373 -453 -561
-74 -76 -137 -138 -141 -138 -3 0 -29 33 -56 72 -99 145 -194 250 -305 336
-14 11 -41 2 -174 -58 -86 -38 -161 -70 -166 -70 -5 0 -9 125 -9 300 l0 299
28 33 c45 52 177 231 213 291 l34 55 63 -87 c35 -47 96 -138 136 -201z m-8435
-678 c206 -172 641 -504 796 -609 531 -356 1215 -630 1930 -772 699 -139 1372
-173 2080 -105 779 75 1480 264 2090 564 402 198 697 396 1219 818 l180 146
91 -96 c63 -65 130 -152 215 -279 160 -238 197 -288 287 -380 l75 -76 -73 -63
c-176 -151 -554 -416 -834 -582 -1413 -841 -3216 -1177 -5070 -942 -907 114
-1832 408 -2590 824 -362 198 -756 461 -1023 684 l-94 78 74 76 c92 96 133
150 288 382 86 127 152 214 214 278 49 50 91 92 94 92 3 0 26 -17 51 -38z
m281 -114 c0 -17 -5 -16 -40 12 -22 17 -40 33 -40 35 0 2 18 -4 40 -12 27 -11
40 -22 40 -35z m7760 48 c0 -2 -18 -19 -40 -36 -34 -27 -40 -29 -40 -13 0 15
25 32 78 52 1 1 2 -1 2 -3z m-6752 -1970 c31 -11 81 -40 120 -73 282 -229 539
-389 842 -522 445 -197 905 -311 1450 -362 174 -17 666 -17 840 0 940 88 1690
380 2311 900 32 27 266 127 276 118 2 -3 -48 -53 -110 -113 -521 -500 -1288
-851 -2137 -979 -430 -65 -964 -72 -1380 -19 -933 118 -1744 477 -2294 1015
l-111 109 70 -28 c39 -16 94 -37 123 -46z"/>
<path d="M5760 6945 c0 -8 5 -15 10 -15 6 0 10 7 10 15 0 8 -4 15 -10 15 -5 0
-10 -7 -10 -15z"/>
<path d="M6485 6987 c-4 -10 -5 -21 -1 -24 10 -10 18 4 13 24 -4 17 -4 17 -12
0z"/>
<path d="M6395 6967 c-4 -10 -5 -21 -1 -24 10 -10 18 4 13 24 -4 17 -4 17 -12
0z"/>
<path d="M6575 6967 c-4 -10 -5 -21 -1 -24 10 -10 18 4 13 24 -4 17 -4 17 -12
0z"/>
<path d="M6449 6837 c-19 -12 -35 -30 -37 -40 -3 -15 6 -17 78 -17 72 0 81 2
78 17 -3 16 -61 63 -78 63 -4 0 -22 -10 -41 -23z"/>
<path d="M5920 5959 l0 -131 39 -39 c36 -36 43 -39 96 -39 53 0 60 3 96 39
l39 39 0 131 0 131 -135 0 -135 0 0 -131z m80 57 c0 -20 -19 -31 -32 -18 -6 6
-7 15 -4 21 10 16 36 13 36 -3z m140 0 c0 -8 -4 -17 -8 -20 -13 -8 -35 11 -28
23 10 16 36 14 36 -3z m-70 -70 c0 -20 -19 -31 -32 -18 -6 6 -7 15 -4 21 10
16 36 13 36 -3z m-70 -70 c0 -20 -19 -31 -32 -18 -6 6 -7 15 -4 21 10 16 36
13 36 -3z m140 0 c0 -20 -19 -31 -32 -18 -6 6 -7 15 -4 21 10 16 36 13 36 -3z"/>
<path d="M4620 5175 l0 -155 115 0 115 0 0 -442 c0 -662 14 -788 102 -968 76
-156 219 -270 393 -315 107 -28 254 -38 375 -25 195 19 321 72 431 180 74 74
118 146 155 252 49 146 54 210 54 786 l0 532 120 0 120 0 0 155 0 155 -410 0
-410 0 0 -155 0 -155 115 0 115 0 0 -532 c0 -432 -3 -546 -15 -603 -30 -142
-92 -223 -204 -267 -47 -18 -77 -22 -186 -22 -113 -1 -137 2 -187 22 -67 27
-127 84 -158 149 -49 104 -52 143 -57 716 l-5 537 121 0 121 0 0 155 0 155
-410 0 -410 0 0 -155z"/>
<path d="M6480 6160 c0 -11 5 -20 10 -20 6 0 10 9 10 20 0 11 -4 20 -10 20 -5
0 -10 -9 -10 -20z"/>
<path d="M6390 6145 c0 -8 5 -15 10 -15 6 0 10 7 10 15 0 8 -4 15 -10 15 -5 0
-10 -7 -10 -15z"/>
<path d="M6570 6145 c0 -8 5 -15 10 -15 6 0 10 7 10 15 0 8 -4 15 -10 15 -5 0
-10 -7 -10 -15z"/>
<path d="M6441 6014 c-52 -43 -42 -54 49 -54 74 0 80 2 80 20 0 22 -52 60 -82
60 -9 0 -30 -12 -47 -26z"/>
<path d="M1351 3649 c-61 -78 -111 -147 -110 -153 0 -11 126 -112 152 -122 9
-3 24 7 37 23 l22 28 -24 20 c-13 11 -36 29 -52 41 l-28 20 23 28 24 27 40
-30 c49 -37 55 -37 79 -4 l20 27 -43 36 c-38 33 -42 40 -32 59 16 29 26 27 76
-14 l43 -36 21 27 c12 15 21 32 21 38 -1 9 -106 95 -146 119 -9 5 -47 -36
-123 -134z"/>
<path d="M9652 3712 c-18 -15 -32 -31 -32 -37 0 -19 139 -340 148 -343 6 -2
23 8 38 22 l29 24 -18 36 c-22 48 -22 48 13 75 l30 22 35 -26 c37 -29 60 -28
90 5 17 19 17 21 2 33 -219 167 -286 217 -293 217 -5 0 -24 -13 -42 -28z m126
-130 l23 -18 -20 -18 c-21 -19 -21 -18 -37 20 -9 21 -18 43 -21 47 -7 11 24
-6 55 -31z"/>
<path d="M1623 3591 c-60 -38 -69 -96 -28 -173 30 -57 31 -64 4 -78 -17 -10
-26 -6 -61 30 l-41 41 -24 -22 c-32 -31 -29 -52 11 -87 69 -60 150 -63 195 -6
34 43 36 79 6 140 -43 87 -21 122 39 62 l35 -35 27 22 c33 27 29 50 -16 86
-48 38 -105 46 -147 20z"/>
<path d="M9421 3549 c-83 -42 -103 -148 -46 -245 66 -113 179 -144 260 -73 63
56 68 133 14 228 -55 95 -146 131 -228 90z m89 -74 c44 -23 82 -79 87 -129 5
-39 2 -46 -19 -60 -31 -20 -61 -11 -100 30 -26 28 -58 91 -58 114 0 11 45 60
55 60 3 0 19 -7 35 -15z"/>
<path d="M1814 3479 c-17 -33 -17 -34 29 -60 9 -5 17 -14 17 -19 0 -6 -31 -60
-70 -122 -38 -62 -70 -117 -70 -123 0 -14 62 -48 70 -38 4 4 37 58 75 118 37
61 69 112 72 115 2 2 20 -4 39 -15 l36 -19 19 24 c10 14 19 30 19 36 0 11
-191 134 -209 134 -6 0 -18 -14 -27 -31z"/>
<path d="M9144 3374 c-99 -52 -99 -41 1 -218 57 -100 95 -156 105 -156 23 0
111 56 137 88 48 57 12 172 -54 172 -22 0 -24 3 -18 29 7 34 -15 85 -44 101
-32 17 -75 11 -127 -16z m90 -70 c9 -24 8 -31 -10 -48 -21 -22 -27 -20 -47 13
-17 28 -17 30 0 40 26 15 50 13 57 -5z m86 -134 c12 -23 3 -47 -22 -61 -11 -6
-21 -9 -22 -7 -42 56 -45 75 -13 87 27 10 44 4 57 -19z"/>
<path d="M2052 3338 c-68 -112 -112 -211 -112 -251 1 -79 51 -127 132 -127 66
0 104 37 176 168 31 59 58 109 60 112 1 3 -14 14 -34 24 -43 20 -33 29 -104
-101 -27 -50 -62 -101 -77 -112 -23 -19 -28 -20 -47 -7 -33 22 -24 63 38 175
31 56 56 105 56 109 0 7 -52 42 -63 42 -3 0 -14 -15 -25 -32z"/>
<path d="M8929 3260 c-73 -38 -86 -130 -28 -186 25 -24 38 -28 92 -30 77 -2
74 -1 81 -20 10 -25 -22 -53 -67 -61 -38 -6 -39 -6 -32 -42 4 -20 9 -38 11
-40 8 -9 97 19 124 39 57 41 65 130 15 179 -21 22 -37 27 -98 31 -69 5 -72 6
-72 30 0 20 8 28 43 40 28 10 41 19 37 28 -3 8 -5 22 -5 33 0 26 -52 25 -101
-1z"/>
<path d="M2267 3058 c-43 -90 -77 -167 -77 -171 0 -4 28 -21 63 -37 104 -50
191 -39 245 30 95 122 71 242 -63 304 -96 45 -82 55 -168 -126z m195 7 c22
-50 -32 -155 -87 -169 -13 -3 -37 -1 -53 6 l-29 13 49 103 48 102 31 -15 c16
-9 35 -27 41 -40z"/>
<path d="M8748 3164 c-16 -8 -28 -17 -28 -20 0 -2 36 -79 80 -170 l79 -165 33
17 c18 9 35 18 37 20 7 7 -153 334 -164 334 -5 -1 -22 -8 -37 -16z"/>
<path d="M8528 3065 l-27 -15 50 -113 c108 -242 100 -228 121 -221 49 15 168
74 168 83 0 18 -23 61 -32 61 -5 0 -32 -10 -59 -21 -27 -12 -51 -20 -52 -18
-2 2 -28 60 -59 129 -30 69 -61 126 -69 127 -8 1 -26 -4 -41 -12z"/>
<path d="M2578 2907 l-118 -152 40 -20 c40 -19 40 -19 54 0 44 61 40 59 80 45
l38 -12 -6 -49 c-7 -48 -6 -49 29 -66 19 -9 38 -14 41 -10 6 5 53 322 54 359
0 10 -12 24 -27 31 -65 33 -60 37 -185 -126z m117 -26 c-7 -45 -8 -46 -36 -31
-19 11 -19 12 7 46 15 19 29 32 31 30 3 -3 2 -23 -2 -45z"/>
<path d="M2842 2798 c-34 -94 -59 -175 -54 -180 4 -4 21 -10 37 -14 l30 -5 35
100 c19 55 37 98 41 95 4 -2 10 -56 14 -120 l7 -116 34 -14 c18 -8 37 -14 42
-14 15 0 136 340 125 351 -5 5 -22 11 -38 12 -26 2 -29 -3 -60 -87 -17 -49
-34 -85 -37 -80 -3 5 -9 55 -13 111 l-7 102 -39 15 c-22 9 -43 16 -47 16 -4 0
-35 -77 -70 -172z"/>
<path d="M8158 2917 c-49 -17 -88 -37 -88 -43 0 -13 115 -333 123 -340 5 -5
178 55 191 67 9 8 -11 69 -24 69 -4 0 -32 -8 -62 -19 l-54 -19 -12 31 c-14 36
-12 38 49 61 l47 17 -11 34 c-12 39 -22 42 -74 20 -19 -8 -39 -15 -43 -15 -7
0 -33 51 -28 55 2 1 27 10 56 20 28 11 52 25 52 31 0 20 -19 64 -27 63 -5 0
-47 -15 -95 -32z"/>
<path d="M3176 2853 c-2 -10 -7 -27 -10 -39 -5 -17 0 -23 34 -33 22 -6 40 -13
40 -14 0 -2 -18 -56 -39 -120 -54 -159 -54 -157 -9 -173 l38 -13 41 132 c24
73 46 136 50 141 4 4 24 3 44 -4 20 -7 38 -10 40 -8 2 1 6 19 10 38 l6 35
-113 38 c-63 20 -117 37 -120 37 -4 0 -9 -8 -12 -17z"/>
<path d="M7836 2810 c-32 -10 -62 -22 -67 -27 -5 -5 16 -85 46 -178 l53 -170
39 2 c55 4 144 52 171 92 41 62 25 189 -31 249 -51 55 -110 64 -211 32z m125
-70 c40 -22 68 -114 49 -161 -12 -29 -66 -67 -78 -54 -3 3 -20 52 -38 108 -23
73 -29 104 -20 109 16 11 64 10 87 -2z"/>
<path d="M3445 2777 c-22 -67 -95 -329 -95 -340 0 -13 66 -35 75 -25 2 2 25
77 51 168 25 91 49 170 51 176 2 6 -14 16 -37 22 -31 7 -42 7 -45 -1z"/>
<path d="M3570 2745 c0 -3 -20 -83 -45 -178 -24 -94 -41 -174 -37 -178 4 -4
21 -10 37 -13 l31 -7 29 118 c16 65 30 109 32 98 2 -11 13 -70 24 -132 l21
-111 41 -11 c23 -5 42 -9 43 -8 3 6 93 361 91 363 -1 1 -18 5 -38 9 l-37 7
-23 -96 c-13 -53 -26 -93 -29 -89 -4 5 -15 52 -25 106 -12 65 -24 101 -34 106
-23 12 -81 24 -81 16z"/>
<path d="M7355 2681 l-30 -6 -8 -189 c-4 -104 -5 -191 -3 -194 3 -2 21 -1 41
2 34 7 35 8 35 55 0 48 0 49 40 59 43 11 46 9 74 -45 9 -18 22 -31 29 -28 6 2
25 6 40 10 16 3 27 11 25 18 -2 7 -41 83 -87 170 -90 168 -85 163 -156 148z
m85 -192 c0 -4 -11 -9 -25 -11 -24 -5 -25 -4 -25 51 l1 56 24 -45 c13 -25 24
-48 25 -51z"/>
<path d="M3868 2486 l-87 -174 31 -6 c52 -10 58 -7 75 35 15 38 18 40 46 35
16 -3 36 -6 43 -6 10 0 14 -14 14 -50 0 -46 2 -50 28 -56 15 -3 35 -8 46 -11
16 -5 18 -1 13 28 -3 19 -9 105 -13 192 -7 173 -6 168 -74 181 l-35 6 -87
-174z m121 -13 c1 -33 -11 -41 -37 -25 -9 7 -8 17 5 50 20 45 31 36 32 -25z"/>
<path d="M6674 2642 c-5 -4 -16 -22 -24 -40 -10 -27 -11 -35 -1 -42 9 -5 8 -9
-6 -12 -16 -4 -21 -29 -41 -184 -12 -98 -22 -182 -22 -186 0 -5 16 -8 35 -8
29 0 37 5 45 26 6 14 10 36 10 49 0 25 17 35 59 35 24 0 30 -6 41 -40 13 -38
15 -40 57 -40 29 0 43 4 43 13 0 8 -31 87 -68 178 -68 161 -70 164 -103 170
-19 4 -25 7 -14 8 17 1 65 58 65 76 0 8 -64 6 -76 -3z m36 -238 c25 -57 25
-54 -5 -54 -23 0 -25 3 -25 50 0 28 2 50 5 50 3 0 15 -21 25 -46z"/>
<path d="M7134 2634 c-7 -3 1 -63 26 -187 39 -197 33 -185 96 -172 21 5 21 5
-15 185 l-35 180 -31 -1 c-16 0 -35 -3 -41 -5z"/>
<path d="M6960 2604 c-62 -11 -111 -28 -107 -38 2 -6 17 -89 33 -184 22 -132
32 -171 42 -167 8 3 25 5 39 5 25 0 26 1 19 61 -4 33 -10 67 -13 75 -4 10 2
14 21 14 22 0 30 -9 56 -66 l29 -65 38 7 c21 4 39 8 41 9 5 5 -49 129 -64 146
-12 14 -12 21 1 53 12 29 13 45 5 76 -15 57 -69 86 -140 74z m59 -96 c11 -28
-8 -62 -36 -66 -21 -3 -33 20 -33 66 0 18 6 22 30 22 23 0 33 -6 39 -22z"/>
<path d="M4396 2557 c-12 -59 -26 -184 -26 -235 0 -101 56 -152 152 -139 79
11 106 63 129 250 14 108 11 117 -42 117 -26 0 -26 -1 -42 -121 -18 -132 -33
-169 -72 -169 -45 0 -51 34 -32 177 9 70 16 127 14 128 -1 1 -19 5 -39 8 -33
5 -38 3 -42 -16z"/>
<path d="M4710 2525 c0 -5 -7 -75 -15 -155 -21 -215 -22 -210 19 -210 40 0 41
3 52 144 l7 89 45 -126 46 -127 43 0 c34 0 43 4 43 17 0 10 7 91 16 181 9 90
14 165 12 167 -2 3 -20 6 -39 7 l-34 3 -11 -110 c-6 -60 -12 -101 -13 -90 -1
11 -19 63 -39 115 l-37 95 -48 5 c-29 4 -47 2 -47 -5z"/>
<path d="M6403 2528 c-99 -11 -101 -12 -87 -65 5 -19 13 -23 45 -23 46 0 43 7
59 -165 7 -66 13 -121 14 -122 1 -1 19 0 40 4 l38 6 -8 96 c-5 53 -8 119 -9
146 l0 50 38 3 c31 3 37 7 37 27 0 60 -1 60 -167 43z"/>
<path d="M5027 2459 c-3 -30 -9 -116 -13 -191 l-7 -138 42 0 c39 0 41 2 41 30
0 16 5 97 11 180 6 83 9 153 6 156 -2 3 -20 7 -39 10 l-35 6 -6 -53z"/>
<path d="M6025 2497 c-50 -24 -70 -54 -70 -107 0 -58 12 -73 87 -111 32 -16
58 -35 58 -42 0 -34 -51 -47 -103 -28 -23 9 -25 7 -31 -31 -4 -22 -4 -43 0
-47 3 -3 39 -6 81 -6 72 0 76 1 104 33 23 26 29 42 29 78 0 63 -12 80 -80 114
-69 35 -76 43 -54 64 18 18 42 20 77 7 23 -9 25 -7 30 27 2 20 1 40 -2 44 -14
16 -96 18 -126 5z"/>
<path d="M6204 2488 c3 -13 10 -96 17 -185 l12 -163 38 0 c46 0 45 -11 27 218
l-11 152 -44 0 c-40 0 -43 -2 -39 -22z"/>
<path d="M5134 2483 c3 -10 21 -88 41 -173 20 -85 38 -163 41 -172 4 -14 16
-18 52 -18 l47 0 58 173 c31 95 57 178 57 185 0 9 -13 12 -42 10 l-42 -3 -36
-124 -37 -123 -22 113 c-31 160 -25 149 -77 149 -39 0 -45 -3 -40 -17z"/>
<path d="M5447 2483 c-4 -3 -7 -89 -7 -190 l0 -183 105 0 105 0 0 40 0 40 -65
0 -65 0 0 40 0 40 60 0 60 0 0 35 0 35 -55 0 -55 0 0 35 0 35 60 0 60 0 0 40
0 40 -98 0 c-54 0 -102 -3 -105 -7z"/>
<path d="M5697 2483 c-4 -3 -7 -89 -7 -190 l0 -183 40 0 40 0 0 75 c0 53 4 75
13 75 25 0 39 -19 56 -76 17 -59 17 -59 59 -62 23 -2 42 0 42 3 0 21 -34 133
-45 151 -12 19 -12 24 5 39 15 14 20 31 20 71 0 46 -4 55 -31 78 -27 23 -39
26 -108 26 -43 0 -81 -3 -84 -7z m131 -75 c29 -29 7 -78 -35 -78 -21 0 -23 5
-23 45 0 40 2 45 23 45 13 0 28 -5 35 -12z"/>
</g>
</svg>
